<svg width="500" height="500" viewBox="0 0 500 500" fill="none" xmlns="http://www.w3.org/2000/svg">
<path d="M189.065 234.1V233.935C169.928 233.935 154.485 249.755 154.485 269.199C154.485 288.643 169.928 304.464 189.065 304.464C208.202 304.464 223.646 288.644 223.646 269.364C223.646 249.918 208.034 234.1 189.065 234.1V234.1Z" fill="white"/>
<path d="M250 0C111.929 0 0 111.929 0 250C0 388.071 111.929 500 250 500C388.071 500 500 388.071 500 250C500 111.929 388.071 0 250 0ZM342.494 381.911C342.494 381.911 329.9 367.9 320.839 355.545C364.484 343.186 380.939 318.469 380.939 318.469C335.56 346.526 293.179 357.321 250 355.918C206.821 357.318 164.44 346.526 119.066 318.469C119.066 318.469 135.516 343.186 179.166 355.545C170.102 367.904 157.512 381.911 157.512 381.911C82.639 380.263 53.6 334.453 51.92 336.43C51.92 234.43 101.44 151.376 101.44 151.376C145.756 119.576 187.051 118.254 194.94 118.089L199.977 122.868C143.406 138.687 116.044 163.405 116.044 163.405C164.597 139.954 210.359 131.705 250 131.211C289.642 131.711 335.4 139.954 383.956 163.405C383.956 163.405 356.594 138.687 300.024 122.868L305.06 118.089C312.95 118.254 354.244 119.572 398.56 151.376C398.56 151.376 448.079 234.428 448.079 336.43C446.4 334.453 417.361 380.263 342.494 381.911V381.911Z" fill="white"/>
<path d="M310.935 233.933V234.098C291.966 234.098 276.354 249.918 276.354 269.362C276.354 288.642 291.799 304.462 310.935 304.462C330.071 304.462 345.515 288.642 345.515 269.197C345.515 249.752 330.072 233.933 310.935 233.933Z" fill="white"/>
</svg>
